<svg xmlns="http://www.w3.org/2000/svg" viewBox="0 0 24 24" class="design-iconfont">
  <g fill="#2f0d43">
    <path d="M458.014,898.546a.746.746,0,0,1-.747.747h-8.121a.747.747,0,1,1,0-1.493h8.121A.746.746,0,0,1,458.014,898.546Z" transform="translate(-437.192 -878.304)"/>
    <path d="M737.228,740.528a.745.745,0,0,1-1.056,0l-2.953-2.955a.745.745,0,0,1,0-1.054l0,0a.745.745,0,0,1,1.054,0l2.953,2.953A.747.747,0,0,1,737.228,740.528Z" transform="translate(-716.61 -719.744)"/>
    <path d="M883.347,565.831a.745.745,0,1,0,.41-.97A.745.745,0,0,0,883.347,565.831Z" transform="translate(-864.165 -551.719)"/>
    <path d="M54.823,46.307a8.992,8.992,0,1,0-8.331,12.379V57.111a7.416,7.416,0,1,1,7.239-5.8l1.385.5a.08.08,0,0,1,.046-.071c.027-.012.056-.027.079-.008A8.864,8.864,0,0,0,54.823,46.307Z" transform="translate(-34.662 -37.698)"/>
    <path d="M330.947,439.447a.746.746,0,0,1-.747.747h-4.854a.747.747,0,1,1,0-1.493H330.2A.745.745,0,0,1,330.947,439.447Z" transform="translate(-316.104 -428.04)"/>
    <path d="M327.767,266.065a.745.745,0,0,1-1.054,0l-2.394-2.392a.745.745,0,1,1,1.054-1.054l2.392,2.392A.747.747,0,0,1,327.767,266.065Z" transform="translate(-315.694 -255.092)"/>
    <path d="M327.231,266.065a.745.745,0,0,1,0-1.054l2.392-2.393a.745.745,0,0,1,1.054,1.054l-2.392,2.392A.745.745,0,0,1,327.231,266.065Zm3.618,2.828a.746.746,0,0,1-.747.747h-4.856a.747.747,0,1,1,0-1.493H330.1A.746.746,0,0,1,330.849,268.893Z" transform="translate(-316.004 -254.999)"/>
    <path d="M458.646,417.949a.746.746,0,0,1-.747-.747v-4.856a.747.747,0,0,1,1.493,0V417.2A.748.748,0,0,1,458.646,417.949Z" transform="translate(-446.973 -401.288)"/>
  </g>
</svg>
