<svg xmlns="http://www.w3.org/2000/svg" viewBox="0 0 24 24" class="design-iconfont">
  <g fill="#aba5ad">
    <path d="M152.765,167.616l14.844-14.844,1.217,1.217-14.844,14.844ZM158.873,160a2.044,2.044,0,0,1,.124-.247,2.089,2.089,0,0,1,1-.871l1.76-1.76a3.809,3.809,0,0,0-4.641,4.64Zm3.846,1.609a2.092,2.092,0,0,1-1.118,1.118l-1.762,1.762a3.805,3.805,0,0,0,4.64-4.64Z" transform="translate(-148.796 -148.372)"/>
    <path d="M67.665,190.011l1.217-1.217a18.988,18.988,0,0,1-2.341-2.822l-.158-.232.158-.232C69.123,181.77,71.819,180,74.663,180a6.856,6.856,0,0,1,2.525.486L78.5,179.18a8.668,8.668,0,0,0-3.833-.9q-5.224,0-9.545,6.26l-.161.239-.064.1a1.721,1.721,0,0,0,.064,1.822A21.049,21.049,0,0,0,67.665,190.011Zm16.7-5.236a21.049,21.049,0,0,0-2.708-3.306l-1.217,1.217a19.011,19.011,0,0,1,2.341,2.822l.158.232-.158.232c-2.582,3.738-5.278,5.507-8.123,5.507a6.856,6.856,0,0,1-2.525-.486L70.83,192.3a8.668,8.668,0,0,0,3.833.9q5.224,0,9.545-6.26l.161-.239.064-.1A1.723,1.723,0,0,0,84.369,184.775Z" transform="translate(-62.663 -173.31)"/>
  </g>
</svg>
