<svg xmlns="http://www.w3.org/2000/svg" viewBox="0 0 28 28" class="design-iconfont">
  <path d="M106.349,109.139h-10.1c-.4,0-.664.8-.664.8v.664h11.426v-.8A.628.628,0,0,0,106.349,109.139ZM108.474,92H94.126A2.214,2.214,0,0,0,92,94.259v10.363a2.214,2.214,0,0,0,2.126,2.259h5.049v.8a.744.744,0,0,0,.664.8h2.923a.744.744,0,0,0,.664-.8v-.8h5.049a2.214,2.214,0,0,0,2.126-2.259V94.259A2.214,2.214,0,0,0,108.474,92ZM94.126,103.957a.744.744,0,0,1-.664-.8v-8.9a.744.744,0,0,1,.664-.8h14.349a.744.744,0,0,1,.664.8v8.9a.744.744,0,0,1-.664.8Zm12.356-8.636-2.391,2.391L102.5,96.119a1.007,1.007,0,0,0-.531-.266,1.834,1.834,0,0,0-.531.4L99.307,100.1l-.93-2.259c-.133-.266-.266-.4-.531-.4s-.531,0-.664.266l-2.126,2.126a.752.752,0,0,0,1.063,1.063l1.329-1.461L98.51,102.1c.133.266.266.531.531.531a.731.731,0,0,0,.664-.4l2.391-4.384,1.461,1.594a.808.808,0,0,0,1.063,0l2.923-2.923a.808.808,0,0,0,0-1.063A.7.7,0,0,0,106.481,95.321Zm0,0" transform="translate(-87 -87.3)" fill="#2f0d43"/>
</svg>
