<svg xmlns="http://www.w3.org/2000/svg" viewBox="0 0 24 24" class="design-iconfont">
  <g fill="#2f0d43">
    <path d="M348.893,343.675a3.8,3.8,0,1,0,0,3.831A3.8,3.8,0,0,0,348.893,343.675Zm-3.255,4a2.085,2.085,0,1,1,2.05-2.086A2.085,2.085,0,0,1,345.638,347.674Z" transform="translate(-333.605 -333.131)"/>
    <path d="M84.342,184.794Q79.96,178.3,74.637,178.3q-5.224,0-9.545,6.259l-.161.239-.065.105a1.723,1.723,0,0,0,.065,1.822q4.382,6.495,9.706,6.494,5.224,0,9.545-6.259l.161-.239.065-.105A1.723,1.723,0,0,0,84.342,184.794Zm-1.585,1.2c-2.582,3.737-5.278,5.506-8.121,5.506s-5.537-1.768-8.121-5.506l-.159-.232.159-.232c2.582-3.737,5.278-5.506,8.121-5.506s5.537,1.768,8.121,5.506l.159.232Z" transform="translate(-62.637 -173.3)"/>
  </g>
</svg>
