<svg xmlns="http://www.w3.org/2000/svg" width="20" height="20" viewBox="0 0 20 20" fill="none">
  <path fill-rule="evenodd" clip-rule="evenodd" d="M4.3125 16.5031C4.55193 17.9203 5.78514 18.9997 7.27045 18.9997H15.9977C17.6546 18.9997 18.9977 17.6566 18.9977 15.9997V7.2724C18.9977 5.78709 17.9183 4.55389 16.5011 4.31445C16.5288 4.47812 16.5432 4.6463 16.5432 4.81784V6.43411C16.8168 6.61254 16.9977 6.92135 16.9977 7.2724V15.9997C16.9977 16.552 16.55 16.9997 15.9977 16.9997H7.27045C6.91939 16.9997 6.61058 16.8188 6.43216 16.5451H4.81589C4.64435 16.5451 4.47617 16.5307 4.3125 16.5031Z" fill="white"/>
  <rect x="2" y="2" width="12.7273" height="12.7273" rx="2" stroke="white" stroke-width="2"/>
</svg>