<svg xmlns="http://www.w3.org/2000/svg" width="111" height="70" viewBox="0 0 111 70" fill="none">
  <ellipse cx="55.4167" cy="58.3327" rx="55.4167" ry="11.6667" fill="#262626"/>
  <path d="M37.4586 23.334C38.5 23.334 39.3671 24.1331 39.452 25.171L39.9996 31.8674C40.0845 32.9053 40.9516 33.7044 41.993 33.7044H68.8386C69.88 33.7044 70.7471 32.9053 70.832 31.8674L71.3796 25.171C71.4645 24.1331 72.3316 23.334 73.373 23.334H93.2769C94.3815 23.334 95.2769 24.2294 95.2769 25.334V60.2229C95.2769 61.3274 94.3815 62.2229 93.2769 62.2229H17.5547C16.4501 62.2229 15.5547 61.3274 15.5547 60.2229V25.334C15.5547 24.2294 16.4501 23.334 17.5547 23.334H37.4586Z" fill="#232323"/>
  <path d="M19.4453 23.334C26.0749 23.334 33.3422 23.334 36.766 23.334C37.8705 23.334 38.7608 24.2294 38.7608 25.334V31.0562C38.7608 32.1608 39.6563 33.0562 40.7608 33.0562H68.5595C69.6641 33.0562 70.5595 32.1608 70.5595 31.0562V25.334C70.5595 24.2294 71.4549 23.334 72.5595 23.334H91.3898" stroke="#484747" stroke-width="2" stroke-linecap="square"/>
  <path d="M35.2235 1.35157C35.4135 1.12851 35.6918 1 35.9848 1H74.8468C75.1398 1 75.418 1.12851 75.608 1.35157L94.0382 22.9891C94.1923 23.17 94.2769 23.3999 94.2769 23.6376V60.2222C94.2769 60.7745 93.8292 61.2222 93.2769 61.2222H17.5547C17.0024 61.2222 16.5547 60.7745 16.5547 60.2222V23.6375C16.5547 23.3999 16.6393 23.17 16.7934 22.9891L35.2235 1.35157Z" stroke="#484747" stroke-width="2"/>
</svg>