<svg xmlns="http://www.w3.org/2000/svg" width="38" height="29" viewBox="0 0 38 29" fill="none">
<path d="M28.5948 28.9999H4.96746C4.57334 28.9997 4.18569 28.8981 3.84059 28.7047C3.49548 28.5113 3.20415 28.2322 2.99371 27.8936C2.78327 27.555 2.66055 27.1678 2.63699 26.768C2.61343 26.3682 2.68978 25.9688 2.85895 25.6071L9.44403 11.5624C9.97349 10.4309 10.8076 9.47499 11.8497 8.80544C12.8918 8.1359 14.0993 7.78011 15.3322 7.7793H30.7887C32.0139 7.77919 33.2189 8.09631 34.29 8.70073C35.3611 9.30516 36.263 10.1769 36.9106 11.2338C37.5582 12.2907 37.9301 13.4979 37.9912 14.7414C38.0523 15.9848 37.8007 17.2236 37.26 18.3408L33.6439 25.8058C33.1804 26.7647 32.4616 27.5724 31.5691 28.137C30.6766 28.7016 29.6461 29.0006 28.5948 28.9999Z" fill="white"/>
<path d="M31.8197 4.69724H14.3969C12.8556 4.70035 11.3466 5.146 10.0437 5.98282C8.74088 6.81965 7.69725 8.01358 7.03316 9.42699L1.1912 21.8783L0.0249476 9.59321C-0.0661237 8.36822 0.0927535 7.13732 0.491626 5.97764C0.890498 4.81796 1.52077 3.75449 2.34294 2.85387C3.16511 1.95325 4.16147 1.23489 5.26957 0.74381C6.37768 0.252728 7.57365 -0.000493465 8.78254 1.20865e-05H24.1928C25.7656 -0.0026488 27.3089 0.43409 28.654 1.2625C29.9991 2.09091 31.0942 3.27911 31.8197 4.69724Z" fill="white"/>
</svg>