<svg xmlns="http://www.w3.org/2000/svg" width="16" height="16" viewBox="0 0 16 16" fill="none">
  <circle cx="8" cy="8" r="8" fill="white"/>
  <path d="M7.14 3H9.03L8.68 10.126H7.49L7.14 3ZM8.078 10.882C8.386 10.882 8.652 10.98 8.862 11.176C9.058 11.372 9.17 11.624 9.17 11.932C9.17 12.24 9.058 12.506 8.862 12.702C8.638 12.898 8.386 12.996 8.078 12.996C7.77 12.996 7.518 12.884 7.322 12.688C7.098 12.492 7 12.24 7 11.932C7 11.624 7.098 11.372 7.322 11.176C7.518 10.98 7.77 10.882 8.078 10.882Z" fill="#262626"/>
</svg>